<svg width="197" height="199" viewBox="0 0 197 199" fill="none" xmlns="http://www.w3.org/2000/svg">
<circle cx="98.5" cy="98.5" r="98.5" fill="#B2B74A"/>
<g clip-path="url(#clip0_0_1)">
<path d="M190.709 76.2314V74.1735C190.709 70.3191 187.574 67.1836 183.719 67.1836C179.961 67.1836 176.896 70.1661 176.744 73.8876L90.9887 59.4952H87.2609V50.4084C87.2609 45.7831 83.4982 42.0208 78.8733 42.0208C74.2484 42.0208 70.4853 45.7831 70.4853 50.4084V59.4952H28.5469V50.4084C28.5469 45.7831 24.7842 42.0208 20.1593 42.0208C15.534 42.0208 11.7716 45.7834 11.7716 50.4084V59.4952H3.38367V165.739H90.9597L193.505 150.68V76.7008L190.709 76.2314ZM182.321 74.1735C182.321 73.4026 182.948 72.7754 183.719 72.7754C184.49 72.7754 185.117 73.4026 185.117 74.1735V75.2927L182.321 74.8233V74.1735H182.321ZM76.0772 50.4084C76.0772 48.8666 77.3311 47.6126 78.8729 47.6126C80.4147 47.6126 81.6687 48.8666 81.6687 50.4084V59.4952H76.0768V50.4084H76.0772ZM17.3631 50.4084C17.3631 48.8666 18.6171 47.6126 20.1589 47.6126C21.7007 47.6126 22.9546 48.8666 22.9546 50.4084V59.4952H17.3631V50.4084ZM28.5469 160.147H8.97553V65.0867H28.5469V70.6785H14.5674V154.555H28.5469V160.147ZM62.0977 148.964H56.5058V129.393H50.914V154.556H62.0977V160.148H34.1387V154.556H45.3225V129.393H39.7302V148.964H34.1387V143.372H28.5469V148.964H20.1589V76.2704H28.5465V81.8623H34.1384V76.2704H39.7302V98.6375H45.3221V70.6785H34.1387V65.0867H62.0977V70.6785H50.914V98.6375H56.5058V76.2704H62.0977V81.8623H67.6895V76.2704H76.0772V148.964H67.6895V143.372H62.0977V148.964ZM187.913 145.849L92.8524 159.809V146.168H87.2605V160.147H67.6892V154.555H81.6687V70.6782H67.6892V65.0863H87.2605V129.392H92.8524V65.4777L187.913 81.4319V145.849V145.849Z" fill="#413C38"/>
<path d="M92.8524 134.985H87.2605V140.577H92.8524V134.985Z" fill="#413C38"/>
<path d="M34.1387 87.4549H28.5469V93.0468H34.1387V87.4549Z" fill="#413C38"/>
<path d="M67.6891 104.229V98.6375H62.0973V104.229H34.1387V98.6375H28.5468V104.229H25.7511V121.005H28.5468V126.596H34.1387V121.005H62.0977V126.596H67.6895V121.005H70.4853V104.229H67.6891ZM64.8934 115.413H31.3426V109.821H64.8934V115.413Z" fill="#413C38"/>
<path d="M34.1387 132.189H28.5469V137.781H34.1387V132.189Z" fill="#413C38"/>
<path d="M67.6895 87.4549H62.0977V93.0468H67.6895V87.4549Z" fill="#413C38"/>
<path d="M67.6895 132.189H62.0977V137.781H67.6895V132.189Z" fill="#413C38"/>
<path d="M109.628 76.2711H104.036V148.965H109.628V76.2711Z" fill="#413C38"/>
<path d="M123.607 79.0673H118.016V146.169H123.607V79.0673Z" fill="#413C38"/>
<path d="M137.587 81.863H131.995V143.373H137.587V81.863Z" fill="#413C38"/>
<path d="M151.566 84.6587H145.974V140.577H151.566V84.6587Z" fill="#413C38"/>
<path d="M165.546 87.4549H159.954V137.781H165.546V87.4549Z" fill="#413C38"/>
<path d="M179.525 90.2506H173.934V134.985H179.525V90.2506Z" fill="#413C38"/>
</g>
<defs>
<clipPath id="clip0_0_1">
<rect width="190.121" height="190.121" fill="white" transform="translate(3.38367 8.81934)"/>
</clipPath>
</defs>
</svg>
