<svg width="197" height="197" viewBox="0 0 197 197" fill="none" xmlns="http://www.w3.org/2000/svg">
<circle cx="98.5" cy="98.5" r="98.5" fill="#B2B74A"/>
<path d="M103.557 150.074C101.257 150.077 99.0272 150.871 97.2426 152.323C95.7661 151.125 93.9803 150.37 92.0921 150.145C90.2039 149.92 88.2907 150.235 86.5739 151.052C84.8572 151.87 83.4073 153.157 82.3922 154.765C81.3771 156.373 80.8384 158.236 80.8384 160.137C80.8384 162.039 81.3771 163.902 82.3922 165.509C83.4073 167.117 84.8572 168.405 86.5739 169.223C88.2907 170.04 90.2039 170.355 92.0921 170.13C93.9803 169.905 95.7661 169.15 97.2426 167.952C98.4943 168.967 99.9716 169.667 101.55 169.993C103.129 170.319 104.763 170.26 106.314 169.823C107.866 169.386 109.289 168.582 110.465 167.48C111.641 166.378 112.535 165.009 113.072 163.489C113.609 161.969 113.773 160.343 113.55 158.746C113.327 157.15 112.724 155.63 111.792 154.315C110.859 153.001 109.624 151.929 108.191 151.191C106.759 150.453 105.169 150.07 103.557 150.074V150.074ZM90.9783 165.169C89.9831 165.169 89.0103 164.874 88.1828 164.321C87.3554 163.768 86.7105 162.982 86.3297 162.063C85.9488 161.144 85.8492 160.132 86.0433 159.156C86.2375 158.18 86.7167 157.283 87.4204 156.58C88.1241 155.876 89.0206 155.397 89.9966 155.202C90.9727 155.008 91.9844 155.108 92.9038 155.489C93.8232 155.87 94.609 156.515 95.1619 157.342C95.7148 158.169 96.0099 159.142 96.0099 160.137C96.0099 161.472 95.4798 162.752 94.5362 163.695C93.5925 164.639 92.3127 165.169 90.9783 165.169ZM103.557 165.169C102.355 165.172 101.192 164.738 100.287 163.946C100.788 162.739 101.047 161.445 101.047 160.137C101.047 158.83 100.788 157.536 100.287 156.328C101.192 155.537 102.355 155.103 103.557 155.106C104.892 155.106 106.172 155.636 107.115 156.58C108.059 157.523 108.589 158.803 108.589 160.137C108.589 161.472 108.059 162.752 107.115 163.695C106.172 164.639 104.892 165.169 103.557 165.169Z" fill="#413C38"/>
<path d="M166.452 59.5051H153.873V56.9893C153.879 52.2511 152.667 47.5909 150.353 43.4562C148.039 39.3215 144.7 35.8511 140.659 33.3781C136.617 30.9051 132.008 29.5126 127.273 29.3342C122.538 29.1559 117.837 30.1976 113.62 32.3595C109.404 30.1976 104.703 29.1559 99.9681 29.3342C95.2333 29.5126 90.6238 30.9051 86.5821 33.3781C82.5404 35.8511 79.2023 39.3215 76.8883 43.4562C74.5742 47.5909 73.3618 52.2511 73.3675 56.9893V59.5051H50.7253C50.058 59.5051 49.4181 59.7701 48.9463 60.2419C48.4745 60.7138 48.2095 61.3537 48.2095 62.0209V104.79H35.6304C33.6306 104.796 31.7143 105.593 30.3002 107.007C28.8861 108.421 28.089 110.337 28.083 112.337V114.853H25.5672C23.5673 114.859 21.6511 115.656 20.237 117.07C18.8228 118.484 18.0257 120.4 18.0198 122.4V172.716C18.0257 174.716 18.8228 176.633 20.237 178.047C21.6511 179.461 23.5673 180.258 25.5672 180.264H116.136C118.136 180.258 120.052 179.461 121.467 178.047C122.881 176.633 123.678 174.716 123.684 172.716V170.201H126.2C127.756 170.193 129.272 169.705 130.541 168.805C131.811 167.905 132.772 166.635 133.294 165.169H151.358C156.027 165.164 160.503 163.307 163.804 160.005C167.106 156.704 168.963 152.227 168.968 147.558V62.0209C168.968 61.3537 168.703 60.7138 168.231 60.2419C167.76 59.7701 167.12 59.5051 166.452 59.5051ZM126.2 34.347C132.202 34.3563 137.955 36.7448 142.2 40.9891C146.444 45.2333 148.832 50.987 148.842 56.9893V59.5051H128.715V56.9893C128.715 52.9111 127.813 48.8834 126.073 45.195C124.334 41.5066 121.799 38.2488 118.652 35.6552C121.076 34.7959 123.628 34.3536 126.2 34.347V34.347ZM126.2 82.1474C126.867 82.1474 127.507 81.8823 127.978 81.4105C128.45 80.9387 128.715 80.2988 128.715 79.6315V75.3044C129.675 75.8582 130.424 76.713 130.848 77.7363C131.272 78.7597 131.346 79.8943 131.06 80.9641C130.773 82.034 130.141 82.9794 129.263 83.6537C128.384 84.328 127.307 84.6935 126.2 84.6935C125.092 84.6935 124.015 84.328 123.136 83.6537C122.258 82.9794 121.626 82.034 121.339 80.9641C121.053 79.8943 121.127 78.7597 121.551 77.7363C121.975 76.713 122.724 75.8582 123.684 75.3044V79.6315C123.684 80.2988 123.949 80.9387 124.421 81.4105C124.892 81.8823 125.532 82.1474 126.2 82.1474ZM113.62 38.171C116.714 40.2405 119.25 43.0399 121.005 46.3219C122.76 49.6038 123.68 53.2675 123.684 56.9893V59.5051H103.557V56.9893C103.561 53.2675 104.481 49.6038 106.236 46.3219C107.991 43.0399 110.527 40.2405 113.62 38.171V38.171ZM78.3992 56.9893C78.3939 53.3655 79.2597 49.7935 80.9237 46.5743C82.5877 43.3552 85.001 40.5831 87.9605 38.4918C90.9199 36.4005 94.3387 35.0511 97.9287 34.5575C101.519 34.0638 105.175 34.4403 108.589 35.6552C105.442 38.2488 102.907 41.5066 101.167 45.195C99.4277 48.8834 98.5255 52.9111 98.5256 56.9893V59.5051H78.3992V56.9893ZM75.8834 82.1474C76.5506 82.1474 77.1905 81.8823 77.6623 81.4105C78.1341 80.9387 78.3992 80.2988 78.3992 79.6315V75.3044C79.3584 75.8582 80.1081 76.713 80.532 77.7363C80.9558 78.7597 81.0302 79.8943 80.7435 80.9641C80.4568 82.034 79.8251 82.9794 78.9464 83.6537C78.0677 84.328 76.991 84.6935 75.8834 84.6935C74.7757 84.6935 73.699 84.328 72.8203 83.6537C71.9416 82.9794 71.3099 82.034 71.0232 80.9641C70.7365 79.8943 70.8109 78.7597 71.2347 77.7363C71.6586 76.713 72.4083 75.8582 73.3675 75.3044V79.6315C73.3675 80.2988 73.6326 80.9387 74.1044 81.4105C74.5762 81.8823 75.2161 82.1474 75.8834 82.1474ZM118.652 172.716C118.652 173.384 118.387 174.024 117.915 174.495C117.443 174.967 116.804 175.232 116.136 175.232H25.5672C24.9 175.232 24.2601 174.967 23.7883 174.495C23.3164 174.024 23.0514 173.384 23.0514 172.716V140.011H118.652V172.716ZM118.652 134.979H23.0514V129.948H118.652V134.979ZM118.652 124.916H23.0514V122.4C23.0514 121.733 23.3164 121.093 23.7883 120.621C24.2601 120.15 24.9 119.884 25.5672 119.884H116.136C116.804 119.884 117.443 120.15 117.915 120.621C118.387 121.093 118.652 121.733 118.652 122.4V124.916ZM128.715 162.653C128.715 163.32 128.45 163.96 127.978 164.432C127.507 164.904 126.867 165.169 126.2 165.169H123.684V122.4C123.678 120.4 122.881 118.484 121.467 117.07C120.052 115.656 118.136 114.859 116.136 114.853H33.1146V112.337C33.1146 111.67 33.3797 111.03 33.8515 110.558C34.3233 110.086 34.9632 109.821 35.6304 109.821H126.2C126.867 109.821 127.507 110.086 127.978 110.558C128.45 111.03 128.715 111.67 128.715 112.337V162.653ZM136.263 160.137H133.747V112.337C133.741 110.337 132.944 108.421 131.53 107.007C130.116 105.593 128.199 104.796 126.2 104.79H53.2411V64.5367H73.3675V69.9205C70.996 70.5329 68.9292 71.9891 67.5545 74.0163C66.1798 76.0435 65.5917 78.5024 65.9003 80.9322C66.209 83.362 67.3932 85.5959 69.231 87.215C71.0688 88.8341 73.434 89.7274 75.8834 89.7274C78.3327 89.7274 80.6979 88.8341 82.5357 87.215C84.3735 85.5959 85.5577 83.362 85.8664 80.9322C86.175 78.5024 85.5869 76.0435 84.2122 74.0163C82.8375 71.9891 80.7707 70.5329 78.3992 69.9205V64.5367H123.684V69.9205C121.312 70.5329 119.245 71.9891 117.871 74.0163C116.496 76.0435 115.908 78.5024 116.216 80.9322C116.525 83.362 117.709 85.5959 119.547 87.215C121.385 88.8341 123.75 89.7274 126.2 89.7274C128.649 89.7274 131.014 88.8341 132.852 87.215C134.69 85.5959 135.874 83.362 136.183 80.9322C136.491 78.5024 135.903 76.0435 134.528 74.0163C133.154 71.9891 131.087 70.5329 128.715 69.9205V64.5367H148.842V147.558C148.842 150.895 147.516 154.094 145.157 156.453C142.798 158.812 139.599 160.137 136.263 160.137ZM163.937 147.558C163.937 150.895 162.611 154.094 160.252 156.453C157.893 158.812 154.694 160.137 151.358 160.137H148.565C150.246 158.502 151.582 156.546 152.494 154.386C153.406 152.225 153.875 149.904 153.873 147.558V64.5367H163.937V147.558Z" fill="#413C38"/>
<path d="M68.3358 157.622H35.6303C34.9631 157.622 34.3232 157.887 33.8514 158.358C33.3796 158.83 33.1145 159.47 33.1145 160.137C33.1145 160.805 33.3796 161.445 33.8514 161.916C34.3232 162.388 34.9631 162.653 35.6303 162.653H68.3358C69.003 162.653 69.6429 162.388 70.1148 161.916C70.5866 161.445 70.8516 160.805 70.8516 160.137C70.8516 159.47 70.5866 158.83 70.1148 158.358C69.6429 157.887 69.003 157.622 68.3358 157.622Z" fill="#413C38"/>
</svg>
