<svg width="53" height="48" viewBox="0 0 53 48" fill="none" xmlns="http://www.w3.org/2000/svg">
<g clip-path="url(#clip0_9_924)">
<path d="M47.9151 23.5481L23.3867 1.75939C22.9292 1.36672 22.9164 0.718956 23.3584 0.312376C23.8004 -0.0941086 24.5296 -0.105429 24.9872 0.28724C24.9969 0.295491 25.0063 0.303837 25.0155 0.312376L50.3571 22.8256C50.8068 23.2252 50.8068 23.8729 50.3571 24.2726L25.0155 46.7857C24.558 47.1784 23.8287 47.1671 23.3867 46.7606C22.9555 46.364 22.9555 45.7353 23.3867 45.3387L47.9151 23.5481Z" fill="#009688"/>
<path d="M2.65273 0.310612C3.1025 -0.0888687 3.83165 -0.0888687 4.28153 0.310612L29.6231 22.8238C30.0727 23.2234 30.0727 23.8712 29.6231 24.2708L4.28153 46.784C3.82398 47.1766 3.09473 47.1654 2.65273 46.7589C2.22152 46.3623 2.22152 45.7335 2.65273 45.337L27.1811 23.5483L2.65273 1.75964C2.2023 1.36055 2.20144 0.712588 2.65067 0.312435C2.65132 0.31186 2.65208 0.311188 2.65273 0.310612Z" fill="#009688"/>
<path d="M24.2023 47.0846C24.5081 47.0851 24.8015 46.9776 25.0179 46.7857L50.3595 24.2726C50.8092 23.873 50.8092 23.2253 50.3595 22.8256L25.0179 0.312376C24.5759 -0.0941086 23.8467 -0.105429 23.3891 0.287241C22.9315 0.67991 22.9188 1.32768 23.3608 1.73426C23.3701 1.74279 23.3795 1.75114 23.3891 1.75939L47.9152 23.5481L23.3868 45.3368C22.9364 45.7359 22.9355 46.3839 23.3847 46.784C23.6014 46.9768 23.8956 47.0851 24.2023 47.0846Z" fill="white"/>
<path d="M3.46833 47.0846C3.77405 47.0851 4.06746 46.9776 4.28387 46.7857L29.6255 24.2726C30.0752 23.873 30.0752 23.2253 29.6255 22.8256L4.28387 0.31237C3.84187 -0.0941149 3.11272 -0.10534 2.65506 0.287234C2.19751 0.679904 2.18487 1.32767 2.62677 1.73425C2.63605 1.74279 2.64545 1.75114 2.65506 1.75939L27.1812 23.5481L2.65279 45.3368C2.20237 45.7359 2.2015 46.3839 2.65074 46.784C2.86737 46.9768 3.16164 47.0851 3.46833 47.0846Z" fill="white"/>
</g>
<defs>
<clipPath id="clip0_9_924">
<rect width="53" height="47.0846" fill="white" transform="matrix(-1 0 0 1 53 0)"/>
</clipPath>
</defs>
</svg>
