<svg width="197" height="197" viewBox="0 0 197 197" fill="none" xmlns="http://www.w3.org/2000/svg">
<circle cx="98.5" cy="98.5" r="98.5" fill="#B2B74A"/>
<g clip-path="url(#clip0_0_1)">
<path d="M170.264 146.328H152.265C153.351 145.538 154.392 144.653 155.37 143.674C159.099 139.946 161.519 135.322 162.186 130.655C162.886 125.757 161.594 121.382 158.549 118.337C155.884 115.674 152.092 114.329 147.881 114.545C146.683 114.607 145.762 115.628 145.824 116.826C145.886 118.024 146.916 118.949 148.105 118.883C150.209 118.774 153.192 119.126 155.478 121.409C157.533 123.463 158.387 126.529 157.886 130.041C157.351 133.783 155.367 137.534 152.299 140.602C149.23 143.67 145.48 145.655 141.737 146.189C141.056 146.286 140.403 146.331 139.752 146.328C137.077 146.314 134.762 145.438 133.106 143.782C131.053 141.729 130.199 138.665 130.7 135.154C131.235 131.41 133.219 127.66 136.29 124.59C137.335 123.543 138.477 122.61 139.686 121.817C140.689 121.159 140.968 119.812 140.31 118.809C139.652 117.806 138.306 117.527 137.302 118.185C135.845 119.142 134.47 120.265 133.217 121.52C132.462 122.276 131.763 123.069 131.118 123.891C130.507 121.768 129.417 119.882 127.873 118.339C121.765 112.231 110.4 113.658 102.539 121.519C101.782 122.276 101.087 123.064 100.451 123.878C99.8548 121.788 98.7911 119.893 97.2373 118.339C94.1933 115.295 89.8195 114.005 84.9211 114.704C80.2539 115.371 75.6304 117.791 71.9021 121.519C71.1393 122.282 70.4344 123.084 69.7848 123.915C69.1902 121.81 68.1242 119.901 66.5615 118.338C61.6169 113.393 52.9696 113.272 45.5324 118.042C44.5228 118.69 44.2294 120.034 44.877 121.044C45.5248 122.053 46.8677 122.346 47.8778 121.699C53.581 118.04 60.0006 117.921 63.4891 121.409C67.9033 125.826 66.4758 134.436 60.3067 140.602C57.2387 143.67 53.4883 145.655 49.7464 146.189C49.0664 146.286 48.4153 146.331 47.7658 146.328C45.0896 146.315 42.7736 145.439 41.1162 143.782C37.6253 140.294 37.7447 133.875 41.4058 128.172C42.0537 127.162 41.7609 125.819 40.7513 125.17C39.7426 124.523 38.3986 124.815 37.7502 125.825C33.1406 133.005 33.096 141.314 37.5512 146.328H26.3314C25.1316 146.328 24.1594 147.301 24.1594 148.5V160.201C24.1594 161.4 25.1316 162.373 26.3314 162.373H170.264C171.464 162.373 172.436 161.4 172.436 160.201V148.5C172.436 147.301 171.464 146.328 170.264 146.328V146.328ZM105.61 124.591C109.358 120.843 114.007 118.846 118.069 118.846C120.692 118.846 123.07 119.679 124.802 121.411C126.855 123.464 127.71 126.529 127.208 130.041C126.673 133.784 124.69 137.535 121.621 140.603C118.553 143.671 114.803 145.655 111.06 146.189C110.38 146.286 109.728 146.331 109.079 146.328C106.402 146.315 104.087 145.44 102.43 143.783C98.0155 139.369 99.4424 130.759 105.61 124.591V124.591ZM74.9739 124.591C78.0416 121.523 81.7926 119.539 85.5354 119.004C86.1922 118.911 86.8328 118.864 87.4549 118.864C90.1577 118.864 92.496 119.742 94.1655 121.411C98.5796 125.825 97.1528 134.434 90.9851 140.603C87.4285 144.159 83.0613 146.135 79.1537 146.328H77.9113C75.5334 146.207 73.3889 145.379 71.7935 143.783C69.7399 141.73 68.8853 138.665 69.3869 135.153C69.9218 131.41 71.9056 127.659 74.9739 124.591ZM168.092 158.029H28.5035V150.672H168.092V158.029Z" fill="black"/>
<path d="M107.976 139.614C108.532 139.614 109.088 139.402 109.512 138.978C109.737 138.752 109.79 138.739 110.2 138.639C110.854 138.479 111.843 138.237 112.927 137.152C114.012 136.068 114.254 135.079 114.415 134.425C114.515 134.014 114.528 133.962 114.754 133.736C114.979 133.51 115.032 133.497 115.442 133.397C116.097 133.237 117.085 132.995 118.17 131.91C119.254 130.825 119.497 129.836 119.657 129.183C119.758 128.772 119.771 128.719 119.997 128.493C120.845 127.644 120.845 126.269 119.997 125.421C119.149 124.573 117.774 124.573 116.925 125.421C115.841 126.506 115.598 127.494 115.438 128.149C115.337 128.559 115.324 128.612 115.098 128.838C114.872 129.064 114.82 129.077 114.41 129.177C113.755 129.337 112.767 129.579 111.682 130.664C110.598 131.749 110.355 132.737 110.195 133.392C110.095 133.802 110.082 133.855 109.856 134.081C109.63 134.306 109.578 134.319 109.167 134.419C108.513 134.58 107.525 134.821 106.44 135.906C105.592 136.754 105.592 138.129 106.44 138.977C106.864 139.402 107.42 139.614 107.976 139.614V139.614Z" fill="black"/>
<path d="M139.844 134.419C139.19 134.58 138.202 134.821 137.117 135.906C136.268 136.754 136.268 138.13 137.117 138.977C137.541 139.401 138.097 139.614 138.653 139.614C139.208 139.614 139.764 139.402 140.189 138.977C140.414 138.752 140.467 138.739 140.877 138.639C141.531 138.478 142.519 138.237 143.604 137.152C144.689 136.067 144.931 135.079 145.091 134.424C145.192 134.014 145.205 133.961 145.431 133.735C145.656 133.51 145.709 133.497 146.119 133.397C146.773 133.236 147.762 132.995 148.847 131.91C149.931 130.825 150.174 129.836 150.334 129.182C150.435 128.772 150.448 128.719 150.674 128.492C151.522 127.644 151.522 126.269 150.674 125.421C149.826 124.572 148.451 124.573 147.602 125.421C146.518 126.505 146.275 127.494 146.115 128.148C146.014 128.559 146.001 128.612 145.775 128.838C145.549 129.064 145.497 129.077 145.087 129.177C144.432 129.337 143.444 129.579 142.359 130.664C141.274 131.748 141.032 132.737 140.872 133.391C140.771 133.802 140.759 133.854 140.533 134.08C140.307 134.306 140.254 134.319 139.844 134.419V134.419Z" fill="black"/>
<path d="M48.1985 138.978C48.4238 138.752 48.4765 138.739 48.8866 138.639C49.5408 138.479 50.5292 138.237 51.6137 137.152C52.6986 136.068 52.9407 135.079 53.1011 134.425C53.2016 134.014 53.2144 133.962 53.4406 133.736C53.6659 133.51 53.7186 133.497 54.1287 133.397C54.7829 133.237 55.7713 132.995 56.8558 131.91C57.941 130.825 58.1831 129.837 58.3435 129.183C58.4443 128.772 58.4573 128.719 58.6835 128.493C59.532 127.644 59.532 126.269 58.6838 125.421C57.8356 124.573 56.4602 124.573 55.6123 125.421C54.5271 126.506 54.285 127.494 54.1246 128.149C54.0238 128.559 54.0108 128.612 53.7843 128.838C53.5587 129.064 53.506 129.077 53.0962 129.177C52.442 129.337 51.4536 129.579 50.369 130.664C49.2842 131.749 49.0421 132.737 48.8816 133.392C48.7811 133.802 48.7684 133.855 48.5422 134.081C48.3169 134.306 48.2642 134.319 47.8541 134.419C47.1999 134.58 46.2115 134.821 45.1267 135.906C44.2784 136.754 44.2784 138.129 45.1267 138.977C45.5509 139.401 46.107 139.614 46.6627 139.614C47.2185 139.614 47.7742 139.402 48.1985 138.978V138.978Z" fill="black"/>
<path d="M77.3393 139.614C77.895 139.614 78.4511 139.402 78.8754 138.978C79.1007 138.752 79.1534 138.739 79.5634 138.639C80.2177 138.479 81.2061 138.237 82.2906 137.152C83.3755 136.068 83.6176 135.079 83.778 134.425C83.8785 134.014 83.8913 133.962 84.1174 133.736C84.3428 133.51 84.3955 133.497 84.8055 133.397C85.4598 133.237 86.4482 132.995 87.5327 131.91C88.6179 130.825 88.86 129.837 89.0204 129.183C89.1212 128.772 89.1342 128.719 89.3604 128.493C90.2089 127.644 90.2089 126.269 89.3607 125.421C88.5122 124.573 87.1368 124.573 86.2892 125.421C85.204 126.506 84.9619 127.494 84.8015 128.149C84.7007 128.559 84.6877 128.612 84.4612 128.838C84.2356 129.064 84.1829 129.077 83.7731 129.177C83.1189 129.337 82.1305 129.579 81.0459 130.664C79.9611 131.749 79.719 132.737 79.5585 133.392C79.458 133.802 79.4453 133.855 79.2191 134.081C78.9938 134.306 78.9411 134.319 78.531 134.419C77.8768 134.58 76.8884 134.821 75.8035 135.906C74.9553 136.754 74.9553 138.129 75.8035 138.977C76.2275 139.402 76.7836 139.614 77.3393 139.614V139.614Z" fill="black"/>
<path d="M88.18 35.8081C87.1748 35.1548 85.8293 35.4406 85.1757 36.447C83.5348 38.9738 82.6677 41.9103 82.6677 44.9396C82.6677 53.5561 89.6793 60.5665 98.2976 60.5665C106.916 60.5665 113.927 53.5561 113.927 44.9396C113.927 36.3213 106.916 29.3098 98.2976 29.3098C97.0485 29.3098 95.8018 29.4592 94.5921 29.754C93.4267 30.0378 92.712 31.213 92.9958 32.3784C93.2799 33.5437 94.4551 34.2596 95.6202 33.9744C96.4936 33.7618 97.3943 33.6538 98.2973 33.6538C104.52 33.6538 109.583 38.7166 109.583 44.9396C109.583 51.1608 104.521 56.2225 98.2973 56.2225C92.074 56.2225 87.0115 51.1608 87.0115 44.9396C87.0115 42.7522 87.6364 40.6335 88.8186 38.8128C89.4722 37.8064 89.1864 36.4612 88.18 35.8081V35.8081Z" fill="black"/>
<path d="M98.2976 24.2915C99.4975 24.2915 100.47 23.3191 100.47 22.1195V16.2687C100.47 15.0692 99.4975 14.0967 98.2976 14.0967C97.0978 14.0967 96.1256 15.0692 96.1256 16.2687V22.1195C96.1256 23.3191 97.0978 24.2915 98.2976 24.2915Z" fill="black"/>
<path d="M85.0072 26.2626C85.4097 26.9594 86.1395 27.3489 86.8902 27.3489C87.2586 27.3489 87.6322 27.2551 87.9742 27.0575C89.013 26.4578 89.3689 25.1294 88.7691 24.0906L85.8436 19.0237C85.2438 17.9849 83.9148 17.6287 82.8766 18.2287C81.8378 18.8285 81.4819 20.1569 82.0816 21.1957L85.0072 26.2626Z" fill="black"/>
<path d="M72.3831 32.4844L77.4502 35.4099C77.7925 35.6075 78.1658 35.7013 78.5342 35.7013C79.2849 35.7013 80.015 35.3115 80.4172 34.615C81.017 33.5762 80.6611 32.2478 79.6223 31.648L74.5551 28.7225C73.5154 28.1221 72.1876 28.4786 71.5881 29.5174C70.9881 30.5562 71.3443 31.8846 72.3831 32.4844V32.4844Z" fill="black"/>
<path d="M69.6281 47.1102H75.4789C76.6787 47.1102 77.6509 46.1377 77.6509 44.9382C77.6509 43.7387 76.6787 42.7662 75.4789 42.7662H69.6281C68.4282 42.7662 67.4561 43.7387 67.4561 44.9382C67.4561 46.1377 68.4282 47.1102 69.6281 47.1102Z" fill="black"/>
<path d="M80.4173 55.2614C79.8176 54.2223 78.4886 53.8664 77.4504 54.4664L72.3832 57.392C71.3444 57.9917 70.9885 59.3201 71.5882 60.3589C71.9908 61.0557 72.7206 61.4452 73.4712 61.4452C73.8396 61.4452 74.2132 61.3514 74.5552 61.1539L79.6224 58.2283C80.6612 57.6286 81.0171 56.3002 80.4173 55.2614V55.2614Z" fill="black"/>
<path d="M82.8768 71.6476C83.2191 71.8451 83.5924 71.939 83.9608 71.939C84.7115 71.939 85.4416 71.5492 85.8438 70.8527L88.7694 65.7855C89.3691 64.7467 89.0132 63.4183 87.9744 62.8185C86.9347 62.2185 85.6066 62.5747 85.0074 63.6135L82.0819 68.6806C81.4821 69.7194 81.838 71.0479 82.8768 71.6476Z" fill="black"/>
<path d="M98.2976 75.7796C99.4975 75.7796 100.47 74.8071 100.47 73.6076V67.7567C100.47 66.5572 99.4975 65.5847 98.2976 65.5847C97.0978 65.5847 96.1256 66.5572 96.1256 67.7567V73.6076C96.1256 74.8071 97.0978 75.7796 98.2976 75.7796Z" fill="black"/>
<path d="M111.588 63.6134C110.988 62.5746 109.659 62.2187 108.621 62.8185C107.582 63.4182 107.226 64.7466 107.826 65.7854L110.752 70.8526C111.154 71.5494 111.884 71.9389 112.635 71.9389C113.003 71.9389 113.377 71.8451 113.719 71.6475C114.757 71.0478 115.113 69.7194 114.514 68.6806L111.588 63.6134Z" fill="black"/>
<path d="M116.973 58.2283L122.04 61.1538C122.382 61.3513 122.756 61.4452 123.124 61.4452C123.875 61.4452 124.605 61.0557 125.007 60.3589C125.607 59.3201 125.251 57.9917 124.212 57.3919L119.145 54.4663C118.105 53.8663 116.777 54.2225 116.178 55.2613C115.578 56.3001 115.934 57.6285 116.973 58.2283Z" fill="black"/>
<path d="M118.944 44.9382C118.944 46.1377 119.916 47.1102 121.116 47.1102H126.967C128.167 47.1102 129.139 46.1377 129.139 44.9382C129.139 43.7387 128.167 42.7662 126.967 42.7662H121.116C119.916 42.7662 118.944 43.7387 118.944 44.9382Z" fill="black"/>
<path d="M118.061 35.7013C118.429 35.7013 118.803 35.6075 119.145 35.4099L124.212 32.4844C125.251 31.8846 125.607 30.5562 125.007 29.5174C124.407 28.4783 123.078 28.1224 122.04 28.7225L116.973 31.648C115.934 32.2478 115.578 33.5762 116.178 34.615C116.58 35.3118 117.31 35.7013 118.061 35.7013V35.7013Z" fill="black"/>
<path d="M108.621 27.0575C108.963 27.255 109.336 27.3488 109.705 27.3488C110.455 27.3488 111.186 26.9593 111.588 26.2625L114.513 21.1957C115.113 20.1568 114.757 18.8284 113.718 18.2287C112.679 17.6286 111.351 17.9845 110.751 19.0236L107.826 24.0905C107.226 25.1293 107.582 26.4577 108.621 27.0575Z" fill="black"/>
<path d="M125.336 84.4317C125.336 83.2322 124.364 82.2597 123.164 82.2597C121.964 82.2597 120.992 83.2322 120.992 84.4317C120.992 84.7894 120.951 84.8574 120.721 85.2351C120.363 85.8262 119.822 86.719 119.822 88.291C119.822 89.8629 120.363 90.7561 120.721 91.3471C120.951 91.7248 120.992 91.7928 120.992 92.1505C120.992 92.507 120.951 92.575 120.722 92.9521C120.364 93.5429 119.822 94.4357 119.822 96.0074C119.822 97.5794 120.363 98.4722 120.722 99.063C120.951 99.4403 120.992 99.5084 120.992 99.8655C120.992 100.222 120.951 100.29 120.722 100.667C120.364 101.258 119.822 102.151 119.822 103.722C119.822 104.922 120.794 105.894 121.994 105.894C123.193 105.894 124.166 104.922 124.166 103.722C124.166 103.366 124.207 103.298 124.436 102.921C124.794 102.33 125.336 101.437 125.336 99.8655C125.336 98.2935 124.794 97.4007 124.436 96.8099C124.207 96.4325 124.166 96.3645 124.166 96.0074C124.166 95.6506 124.207 95.5829 124.436 95.2058C124.794 94.615 125.336 93.7222 125.336 92.1505C125.336 90.5785 124.794 89.6854 124.436 89.0946C124.207 88.717 124.166 88.6489 124.166 88.2912C124.166 87.9336 124.207 87.8655 124.436 87.4879C124.794 86.8968 125.336 86.0037 125.336 84.4317Z" fill="black"/>
<path d="M100.762 84.4317C100.762 83.2322 99.7899 82.2597 98.5901 82.2597C97.3902 82.2597 96.418 83.2322 96.418 84.4317C96.418 84.7897 96.3766 84.8577 96.1476 85.2354C95.7893 85.8262 95.248 86.7193 95.248 88.291C95.248 89.8626 95.7896 90.7561 96.1476 91.3468C96.3766 91.7245 96.418 91.7925 96.418 92.1502C96.418 92.507 96.3766 92.575 96.1481 92.9521C95.7896 93.5429 95.248 94.4357 95.248 96.0071C95.248 97.5788 95.7896 98.4716 96.1478 99.0624C96.3766 99.4398 96.418 99.5078 96.418 99.8649C96.418 100.222 96.3766 100.29 96.1481 100.667C95.7896 101.257 95.248 102.15 95.248 103.722C95.248 104.921 96.2202 105.894 97.4201 105.894C98.6199 105.894 99.5921 104.921 99.5921 103.722C99.5921 103.365 99.6335 103.297 99.862 102.92C100.221 102.329 100.762 101.436 100.762 99.8649C100.762 98.2932 100.221 97.4004 99.8623 96.8096C99.6335 96.4323 99.5921 96.3642 99.5921 96.0071C99.5921 95.6503 99.6335 95.5823 99.8623 95.2052C100.221 94.6144 100.762 93.7219 100.762 92.1502C100.762 90.5782 100.221 89.6854 99.8626 89.0946C99.6335 88.7167 99.5921 88.6486 99.5921 88.291C99.5921 87.9333 99.6335 87.8652 99.8626 87.4876C100.221 86.8965 100.762 86.0034 100.762 84.4317V84.4317Z" fill="black"/>
<path d="M76.1882 84.4317C76.1882 83.2322 75.216 82.2597 74.0162 82.2597C72.8164 82.2597 71.8442 83.2322 71.8442 84.4317C71.8442 84.7897 71.8028 84.8577 71.5737 85.2354C71.2155 85.8262 70.6742 86.7193 70.6742 88.291C70.6742 89.8626 71.2158 90.7561 71.5737 91.3468C71.8028 91.7245 71.8442 91.7925 71.8442 92.1502C71.8442 92.507 71.8028 92.575 71.5743 92.9521C71.2158 93.5429 70.6742 94.4357 70.6742 96.0071C70.6742 97.5788 71.2158 98.4716 71.574 99.0624C71.8028 99.4398 71.8442 99.5078 71.8442 99.8649C71.8442 100.222 71.8028 100.29 71.5743 100.667C71.2158 101.257 70.6742 102.15 70.6742 103.722C70.6742 104.921 71.6464 105.894 72.8462 105.894C74.046 105.894 75.0182 104.921 75.0182 103.722C75.0182 103.365 75.0596 103.297 75.2881 102.92C75.6467 102.329 76.1882 101.436 76.1882 99.8649C76.1882 98.2932 75.6467 97.4004 75.2884 96.8096C75.0596 96.4323 75.0182 96.3642 75.0182 96.0071C75.0182 95.6503 75.0596 95.5823 75.2884 95.2052C75.6467 94.6144 76.1882 93.7219 76.1882 92.1502C76.1882 90.5782 75.647 89.6854 75.2887 89.0946C75.0596 88.7167 75.0182 88.6486 75.0182 88.291C75.0182 87.9333 75.0596 87.8652 75.2887 87.4876C75.6467 86.8965 76.1882 86.0034 76.1882 84.4317V84.4317Z" fill="black"/>
</g>
<defs>
<clipPath id="clip0_0_1">
<rect width="148.276" height="148.276" fill="white" transform="translate(24.1594 14.0967)"/>
</clipPath>
</defs>
</svg>
