<svg width="197" height="201" viewBox="0 0 197 201" fill="none" xmlns="http://www.w3.org/2000/svg">
<circle cx="98.5" cy="102.5" r="98.5" fill="#B2B74A"/>
<g clip-path="url(#clip0_0_1)">
<path d="M52.0313 120.372C41.9474 120.372 33.7469 128.573 33.7469 138.657C33.7469 148.741 41.9474 156.941 52.0313 156.941C62.1152 156.941 70.3157 148.741 70.3157 138.657C70.3157 128.573 62.1149 120.372 52.0313 120.372ZM52.0313 150.846C45.3086 150.846 39.8419 145.379 39.8419 138.657C39.8419 131.934 45.309 126.467 52.0313 126.467C58.7537 126.467 64.2208 131.934 64.2208 138.657C64.2208 145.379 58.7537 150.846 52.0313 150.846Z" fill="#413C38"/>
<path d="M155.643 120.372C145.559 120.372 137.358 128.573 137.358 138.657C137.358 148.741 145.559 156.941 155.643 156.941C165.727 156.941 173.927 148.741 173.927 138.657C173.927 128.573 165.727 120.372 155.643 120.372ZM155.643 150.846C148.92 150.846 143.453 145.379 143.453 138.657C143.453 131.934 148.92 126.467 155.643 126.467C162.365 126.467 167.832 131.934 167.832 138.657C167.832 145.379 162.365 150.846 155.643 150.846Z" fill="#413C38"/>
<path d="M191.727 103.487L164.3 60.823C163.74 59.9513 162.774 59.4242 161.737 59.4242H128.216C126.531 59.4242 125.169 60.7895 125.169 62.4715V138.656C125.169 140.342 126.531 141.704 128.216 141.704H140.406V135.609H131.263V65.5191H160.073L186.117 106.031V135.609H170.879V141.704H189.164C190.849 141.704 192.211 140.342 192.211 138.657V105.135C192.211 104.553 192.044 103.977 191.727 103.487Z" fill="#413C38"/>
<path d="M143.453 99.0403V77.7086H167.832V71.6137H140.406C138.721 71.6137 137.359 72.979 137.359 74.661V102.088C137.359 103.773 138.721 105.135 140.406 105.135H186.117V99.0399H143.453V99.0403Z" fill="#413C38"/>
<path d="M128.216 38.0926H12.415C10.7329 38.0926 9.36768 39.4578 9.36768 41.1399V138.657C9.36768 140.342 10.7329 141.704 12.415 141.704H36.7942V135.609H15.4626V44.1871H125.169V135.609H67.2681V141.704H128.216C129.901 141.704 131.263 140.342 131.263 138.657V41.1399C131.263 39.4578 129.901 38.0926 128.216 38.0926Z" fill="#413C38"/>
<path d="M30.6993 123.42H12.4149V129.514H30.6993V123.42Z" fill="#413C38"/>
<path d="M125.169 123.42H73.363V129.514H125.169V123.42Z" fill="#413C38"/>
<path d="M189.164 123.42H176.974V129.514H189.164V123.42Z" fill="#413C38"/>
<path d="M128.216 50.282H21.5571V56.3769H128.216V50.282Z" fill="#413C38"/>
<path d="M55.0787 135.609H48.9838V141.704H55.0787V135.609Z" fill="#413C38"/>
<path d="M158.69 135.609H152.595V141.704H158.69V135.609Z" fill="#413C38"/>
<path d="M64.2208 25.9028H21.5571V31.9977H64.2208V25.9028Z" fill="#413C38"/>
<path d="M15.4626 25.9028H9.36768V31.9977H15.4626V25.9028Z" fill="#413C38"/>
</g>
<defs>
<clipPath id="clip0_0_1">
<rect width="182.844" height="182.844" fill="white" transform="translate(9.36768)"/>
</clipPath>
</defs>
</svg>
